<?xml version="1.0" standalone="no"?>
<!DOCTYPE svg PUBLIC "-//W3C//DTD SVG 20010904//EN"
 "http://www.w3.org/TR/2001/REC-SVG-20010904/DTD/svg10.dtd">
<svg version="1.0" xmlns="http://www.w3.org/2000/svg"
 width="400.000000pt" height="400.000000pt" viewBox="0 0 400.000000 400.000000"
 preserveAspectRatio="xMidYMid meet">
<metadata>
Created by potrace 1.11, written by Peter Selinger 2001-2013
</metadata>
<g transform="translate(0.000000,400.000000) scale(0.100000,-0.100000)"
fill="#000000" stroke="none">
<path d="M1795 3933 c-130 -12 -370 -71 -493 -122 -75 -31 -211 -100 -199
-101 4 0 38 15 75 34 136 68 340 128 537 157 113 17 394 17 500 0 94 -14 298
-61 292 -67 -2 -2 -47 5 -99 16 -192 40 -397 50 -618 29 -443 -41 -817 -215
-1154 -538 l-90 -86 72 81 c39 44 111 112 159 152 133 107 142 116 88 81 -130
-85 -310 -257 -418 -401 -196 -262 -329 -594 -367 -920 -19 -163 -8 -441 24
-593 77 -367 271 -738 526 -1008 161 -171 324 -289 545 -397 219 -107 375
-153 615 -181 144 -16 433 -6 565 21 101 20 278 70 272 77 -2 2 -46 -8 -98
-22 -151 -40 -289 -57 -464 -57 -166 -1 -311 13 -405 37 -34 9 -41 12 -18 9
292 -40 588 -31 819 25 192 45 409 136 573 239 129 81 230 164 356 291 57 58
86 84 63 56 -44 -53 -205 -212 -288 -284 -42 -36 -43 -39 -10 -15 88 61 213
174 298 269 442 496 589 1189 390 1830 -51 166 -177 420 -281 570 -202 291
-447 500 -762 648 -265 125 -508 178 -802 175 -90 -1 -181 -3 -203 -5z m397
-109 c403 -52 759 -222 1051 -504 291 -280 474 -622 552 -1035 l15 -80 -6 65
c-24 283 -182 662 -379 905 -27 33 -38 51 -25 40 40 -35 149 -181 211 -282 65
-106 146 -302 178 -428 87 -344 78 -697 -29 -1055 -33 -110 -33 -78 0 45 34
125 61 290 59 361 -1 38 -4 29 -10 -35 -30 -287 -145 -593 -320 -857 -98 -147
-320 -370 -469 -471 -332 -224 -653 -327 -1020 -327 -207 0 -346 22 -535 85
-289 96 -514 235 -733 452 -302 297 -489 679 -541 1102 l-10 80 4 -85 c6 -105
43 -287 85 -411 70 -211 225 -483 361 -634 50 -56 53 -61 15 -25 -60 57 -169
193 -231 288 -215 335 -312 840 -240 1252 18 106 56 262 62 257 2 -3 -3 -31
-11 -63 -21 -82 -46 -255 -44 -306 1 -40 1 -40 5 -8 30 303 140 613 306 860
311 463 795 753 1367 819 118 13 199 12 332 -5z m-1282 -315 c-250 -205 -305
-259 -426 -421 -145 -195 -253 -421 -320 -673 -23 -85 -33 -112 -29 -78 9 82
60 251 115 378 124 290 331 555 580 743 88 67 137 98 80 51z m2445 -239 c10
-11 16 -20 13 -20 -3 0 -13 9 -23 20 -10 11 -16 20 -13 20 3 0 13 -9 23 -20z
m-2815 -34 c0 -2 -8 -10 -17 -17 -16 -13 -17 -12 -4 4 13 16 21 21 21 13z
m-30 -40 c0 -2 -8 -10 -17 -17 -16 -13 -17 -12 -4 4 13 16 21 21 21 13z m-383
-963 c-3 -10 -5 -2 -5 17 0 19 2 27 5 18 2 -10 2 -26 0 -35z m-10 -85 c-3 -8
-6 -5 -6 6 -1 11 2 17 5 13 3 -3 4 -12 1 -19z m3770 -300 c-3 -8 -6 -5 -6 6
-1 11 2 17 5 13 3 -3 4 -12 1 -19z m-10 -105 c-3 -10 -5 -2 -5 17 0 19 2 27 5
18 2 -10 2 -26 0 -35z m-22 -134 c-47 -235 -172 -499 -343 -724 -94 -124 -304
-322 -432 -409 -32 -21 15 20 90 80 171 136 345 336 460 527 94 157 191 408
222 572 7 39 14 62 16 52 2 -10 -4 -54 -13 -98z m-136 -278 c-6 -18 -13 -30
-15 -28 -2 2 1 18 7 36 6 18 13 30 15 28 2 -2 -1 -18 -7 -36z m-199 -505 c0
-2 -8 -10 -17 -17 -16 -13 -17 -12 -4 4 13 16 21 21 21 13z"/>
<path d="M1711 2194 c-11 -14 -23 -34 -26 -44 -3 -10 -20 -22 -37 -26 -29 -6
-30 -7 -14 -20 17 -12 17 -18 6 -66 -7 -29 -19 -63 -27 -76 -16 -26 -73 -63
-84 -56 -5 3 -5 34 -2 69 l6 65 -29 0 c-20 0 -41 -13 -72 -42 -33 -32 -41 -37
-32 -18 26 50 29 89 10 113 -23 27 -28 23 -75 -70 -51 -103 -136 -156 -165
-104 -13 25 -13 61 0 61 6 0 10 -4 10 -10 0 -19 39 -10 54 12 32 45 18 92 -31
109 -31 10 -37 9 -60 -12 -28 -27 -43 -51 -48 -81 -3 -11 -7 -23 -9 -26 -9 -8
-36 20 -36 37 0 21 -19 41 -38 41 -9 0 -13 -7 -10 -17 5 -19 -43 -110 -56
-106 -4 2 -9 35 -11 75 -3 55 -8 75 -22 86 -20 14 -17 19 -43 -86 -19 -73
-124 -131 -150 -83 -13 25 -13 61 0 61 6 0 10 -4 10 -10 0 -19 39 -10 54 12
32 45 18 92 -31 109 -31 10 -37 9 -60 -12 -34 -32 -49 -66 -52 -116 -2 -35 2
-47 25 -68 36 -33 108 -35 148 -4 l27 21 28 -26 c47 -45 75 -34 116 47 25 49
32 53 54 33 10 -9 25 -16 34 -16 9 0 17 -7 17 -15 0 -9 12 -27 26 -40 34 -32
109 -35 145 -6 l24 19 0 -32 c0 -29 3 -31 37 -34 33 -3 37 0 47 30 7 18 32 56
56 83 l45 50 0 -47 c0 -29 6 -53 16 -62 20 -20 82 -21 104 -1 16 14 18 13 24
-16 9 -46 33 -69 71 -69 25 0 41 9 73 44 22 23 43 53 47 66 5 16 10 19 18 11
6 -6 33 -11 59 -11 56 0 57 -5 24 -75 -25 -54 -77 -110 -96 -103 -12 4 64 128
79 128 5 0 11 7 15 15 3 8 1 15 -4 15 -16 0 -116 -98 -135 -134 -19 -36 -19
-36 2 -57 16 -16 28 -20 51 -15 45 10 108 70 136 131 29 61 33 97 11 118 -12
13 -12 17 6 33 54 49 60 116 13 134 -20 8 -40 5 -87 -14 -34 -13 -70 -26 -80
-30 -10 -3 -17 -12 -15 -19 8 -22 45 -19 83 7 37 26 65 33 65 18 0 -10 -113
-122 -123 -122 -5 0 -5 9 -2 20 3 11 2 20 -3 20 -6 0 -13 -11 -16 -25 -8 -31
-73 -105 -92 -105 -27 0 -20 85 16 175 25 63 31 71 63 80 51 14 56 25 13 25
-33 0 -37 2 -31 20 18 55 -28 80 -64 34z m30 -45 c-6 -16 -10 -18 -10 -7 -1
22 12 55 16 42 2 -6 -1 -22 -6 -35z m-18 -69 c-3 -12 -8 -19 -11 -16 -5 6 5
36 12 36 2 0 2 -9 -1 -20z m-958 -59 c-7 -23 -25 -29 -25 -8 0 14 21 39 28 33
2 -3 1 -14 -3 -25z m450 0 c-7 -23 -25 -29 -25 -8 0 14 21 39 28 33 2 -3 1
-14 -3 -25z"/>
<path d="M2110 2121 c-14 -27 -13 -31 9 -31 20 0 35 25 25 41 -9 15 -23 10
-34 -10z"/>
<path d="M2230 2043 c-36 -88 -66 -130 -95 -135 -16 -2 -21 3 -23 28 -2 18 4
49 13 70 30 73 -27 72 -63 -1 -29 -60 -29 -109 0 -129 30 -21 56 -20 97 5 31
19 34 19 45 3 23 -31 60 -9 127 76 34 44 64 80 66 80 1 0 -9 -21 -22 -46 -28
-53 -32 -92 -11 -100 19 -7 35 2 90 53 l45 43 -2 -41 c-3 -54 20 -72 63 -47
28 16 29 16 32 -5 2 -14 11 -23 27 -25 27 -4 83 49 139 131 18 26 35 47 37 47
2 0 -9 -25 -26 -56 -33 -63 -37 -92 -13 -101 19 -7 23 -4 93 55 l50 43 -9 -30
c-16 -56 37 -93 74 -52 16 18 18 18 46 -10 45 -45 119 -40 178 14 l22 20 0
-32 c0 -35 22 -51 49 -34 9 6 33 48 53 94 32 71 38 79 38 52 0 -37 25 -57 53
-42 9 6 17 15 17 21 0 7 -5 6 -14 -1 -12 -11 -15 -6 -18 31 -2 35 -7 44 -24
46 -17 2 -27 -9 -50 -52 -16 -30 -30 -53 -32 -51 -2 2 4 17 12 34 9 16 16 41
16 54 0 24 -27 57 -48 57 -14 0 -36 -50 -46 -101 -9 -48 -76 -109 -120 -109
-23 0 -49 45 -41 71 7 20 8 20 17 6 5 -10 18 -17 29 -17 24 0 53 61 44 91 -8
24 -60 52 -84 44 -26 -8 -71 -76 -71 -106 0 -26 -36 -69 -58 -69 -8 0 -10 14
-5 45 7 54 -14 70 -50 38 -40 -36 -47 -37 -35 -3 13 38 -2 80 -29 80 -10 0
-40 -23 -66 -52 -27 -29 -46 -44 -42 -33 17 51 17 81 -3 104 -10 14 -25 22
-33 19 -8 -3 -30 -42 -48 -87 -30 -73 -59 -111 -84 -111 -4 0 -7 21 -5 47 4
58 -14 66 -60 28 l-30 -25 5 40 c6 44 -8 70 -38 70 -10 0 -22 -6 -26 -13 -4
-8 -25 -34 -46 -58 -33 -38 -37 -40 -28 -16 23 61 6 127 -34 127 -7 0 -27 -35
-45 -77z m883 -13 c-6 -22 -21 -35 -30 -26 -5 5 24 46 33 46 1 0 0 -9 -3 -20z"/>
<path d="M174 2005 c0 -60 1 -84 3 -52 2 32 2 81 0 110 -2 29 -3 3 -3 -58z"/>
<path d="M3821 1934 c0 -11 3 -14 6 -6 3 7 2 16 -1 19 -3 4 -6 -2 -5 -13z"/>
<path d="M1058 3694 c-38 -20 -36 -28 2 -9 17 9 30 18 30 20 0 7 -1 6 -32 -11z"/>
<path d="M994 3654 c-18 -14 -18 -15 4 -4 12 6 22 13 22 15 0 8 -5 6 -26 -11z"/>
<path d="M939 3619 l-24 -20 28 17 c15 9 27 18 27 20 0 8 -8 4 -31 -17z"/>
<path d="M2860 270 c-19 -11 -31 -19 -27 -20 11 0 67 29 67 35 0 7 -1 7 -40
-15z"/>
<path d="M2665 185 c-16 -8 -23 -14 -15 -14 8 0 26 6 40 14 32 18 15 18 -25 0z"/>
</g>
</svg>
